<svg xmlns="http://www.w3.org/2000/svg" width="15" height="15" viewBox="0 0 15 15">
  <defs>
    <style>
      .cls-1 {
        fill: #fff;
        fill-rule: evenodd;
      }
    </style>
  </defs>
  <path id="fotaiconimg3" class="cls-1" d="M1574.05,8891.28h3.21v10.69h-3.21v-10.69Zm1.62-4.28a1.621,1.621,0,1,0,1.66,1.67A1.667,1.667,0,0,0,1575.67,8887Zm12.28,5.7a3.178,3.178,0,0,0-2.65-1.09,3.534,3.534,0,0,0-3.16,1.8h-0.05v-2.13h-2.7c0.05,1.09,0,10.69,0,10.69h3.21v-6.64a1.549,1.549,0,0,1,1.61-1.23c1.04,0,1.56.76,1.56,2.22V8902h3.22v-6.08A4.63,4.63,0,0,0,1587.95,8892.7Z" transform="translate(-1574 -8887)"/>
</svg>
