<svg xmlns="http://www.w3.org/2000/svg" width="19" height="15" viewBox="0 0 19 15">
  <defs>
    <style>
      .cls-1 {
        fill: #fff;
        fill-rule: evenodd;
      }
    </style>
  </defs>
  <path id="fotaiconimg5" class="cls-1" d="M1702.31,8895.05a1.964,1.964,0,0,1,.65.82,2.341,2.341,0,0,1,.15.99,3.211,3.211,0,0,1-.24,1.03,3.868,3.868,0,0,1-.53.93,6.193,6.193,0,0,1-1.32,1.29,8.378,8.378,0,0,1-1.52.89,9.615,9.615,0,0,1-1.58.56,13.563,13.563,0,0,1-1.5.29,10.445,10.445,0,0,1-1.25.12c-0.38.02-.66,0.03-0.87,0.03s-0.48-.01-0.82-0.04a11.476,11.476,0,0,1-1.14-.16,12.556,12.556,0,0,1-1.3-.34,8.3,8.3,0,0,1-1.34-.57,7.314,7.314,0,0,1-1.24-.87,4.865,4.865,0,0,1-1-1.24,3.358,3.358,0,0,1-.37-1,8.476,8.476,0,0,1-.09-1.36,2.819,2.819,0,0,1,.13-0.8,3.886,3.886,0,0,1,.45-1,7.959,7.959,0,0,1,.89-1.19,15,15,0,0,1,1.44-1.42,14.8,14.8,0,0,1,1.77-1.35,8.251,8.251,0,0,1,1.95-.91,3.931,3.931,0,0,1,1.07-.17,1.95,1.95,0,0,1,.95.17,3.8,3.8,0,0,1,.33.37,0.925,0.925,0,0,1,.2.46,0.894,0.894,0,0,1,.01.43l-0.09.42a3.237,3.237,0,0,0-.09.4,0.622,0.622,0,0,0,.04.36,1.745,1.745,0,0,0,.56-0.03,4.58,4.58,0,0,0,.53-0.14c0.17-.06.35-0.12,0.52-0.19a3.277,3.277,0,0,1,.56-0.14,4.734,4.734,0,0,1,.91-0.08,3.3,3.3,0,0,1,.82.12,1.579,1.579,0,0,1,.61.35,1,1,0,0,1,.29.61,0.918,0.918,0,0,1-.03.41c-0.05.13-.1,0.25-0.15,0.37a2.3,2.3,0,0,0-.12.34,0.6,0.6,0,0,0,.03.37,0.419,0.419,0,0,0,.25.21c0.13,0.07.28,0.13,0.45,0.2s0.35,0.13.54,0.21a2.49,2.49,0,0,1,.49.25h0Zm-4.31,5.02a4.936,4.936,0,0,0,.89-0.71,3.975,3.975,0,0,0,.74-1.01,3.053,3.053,0,0,0,.32-1.19,2.3,2.3,0,0,0-.35-1.28,3.306,3.306,0,0,0-.79-0.91,4.137,4.137,0,0,0-1.05-.58,6.092,6.092,0,0,0-1.24-.32,9.973,9.973,0,0,0-1.35-.1,9.649,9.649,0,0,0-2.33.26,6.948,6.948,0,0,0-1.76.68,4.6,4.6,0,0,0-1.21.95,3.243,3.243,0,0,0-.65,1.08,2.242,2.242,0,0,0-.11,1.05,2.846,2.846,0,0,0,.35,1,3.1,3.1,0,0,0,.71.83,3.581,3.581,0,0,0,.97.6,7.03,7.03,0,0,0,1.99.51,9.7,9.7,0,0,0,1.94.01,9.018,9.018,0,0,0,1.69-.34,6.138,6.138,0,0,0,1.24-.53h0Zm-2.24-5.1c0.22,0.09.44,0.19,0.65,0.29a2.048,2.048,0,0,1,.54.44,1.635,1.635,0,0,1,.3.48,2.21,2.21,0,0,1,.18.62,3.011,3.011,0,0,1,.03.67,1.493,1.493,0,0,1-.17.61,4.368,4.368,0,0,1-.33.59,3.105,3.105,0,0,1-.48.56,2.957,2.957,0,0,1-1.63.75,3.758,3.758,0,0,1-1.97-.17,2.96,2.96,0,0,1-1.47-1.18,4.334,4.334,0,0,1-.22-1.11,2.213,2.213,0,0,1,.27-1.05,2.672,2.672,0,0,1,.68-0.81,3.7,3.7,0,0,1,1.04-.61,3.994,3.994,0,0,1,1.26-.28,3.371,3.371,0,0,1,1.32.2h0Zm-2.72,3.97a1.176,1.176,0,0,0,.96-0.29,1.2,1.2,0,0,0,.36-0.76,1,1,0,0,0-.26-0.75,0.951,0.951,0,0,0-.88-0.27,1.023,1.023,0,0,0-.71.38,1.175,1.175,0,0,0-.29.68,1,1,0,0,0,.16.67A0.8,0.8,0,0,0,1693.04,8898.94Zm6.99-11.94a8.429,8.429,0,0,1,2.34.31,6.144,6.144,0,0,1,1.89.91,4.318,4.318,0,0,1,1.28,1.45,4,4,0,0,1,.46,1.94,1.05,1.05,0,0,1-.27.79,0.9,0.9,0,0,1-.59.28,0.847,0.847,0,0,1-.59-0.23,0.86,0.86,0,0,1-.28-0.72,2.23,2.23,0,0,0-.37-1.22,3.694,3.694,0,0,0-1-1.01,5.143,5.143,0,0,0-1.41-.69,5.251,5.251,0,0,0-1.61-.25,1.115,1.115,0,0,1-.79-0.24,0.677,0.677,0,0,1-.24-0.54,0.745,0.745,0,0,1,.32-0.54,1.335,1.335,0,0,1,.86-0.24h0Zm0,2.58a3.417,3.417,0,0,1,2.41.76,3,3,0,0,1,.82,2.31,1.043,1.043,0,0,1-.17.69,0.442,0.442,0,0,1-.37.18,0.593,0.593,0,0,1-.38-0.24,0.89,0.89,0,0,1-.17-0.56,2.05,2.05,0,0,0-.58-1.52,2.176,2.176,0,0,0-1.56-.56,0.621,0.621,0,0,1-.48-0.17,0.525,0.525,0,0,1-.15-0.36,0.5,0.5,0,0,1,.16-0.36A0.605,0.605,0,0,1,1700.03,8889.58Z" transform="translate(-1687 -8887)"/>
</svg>
