<svg xmlns="http://www.w3.org/2000/svg" width="18" height="15" viewBox="0 0 18 15">
  <defs>
    <style>
      .cls-1 {
        fill: #fff;
        fill-rule: evenodd;
      }
    </style>
  </defs>
  <path id="fotaiconimg4" class="cls-1" d="M1648,8896.73c0-2.46-2.25-4.47-5.08-4.57-0.32-2.89-3.09-5.16-6.44-5.16-3.58,0-6.48,2.53-6.48,5.69a5.507,5.507,0,0,0,2.64,4.57c0.19,0.1-.59,1.74-0.39,1.84,0.32,0.2,1.62-1.22,1.98-1.08a7.406,7.406,0,0,0,2.28.36,7.7,7.7,0,0,0,1.17-.1,5.35,5.35,0,0,0,4.98,2.99,6.505,6.505,0,0,0,1.79-.26c0.16-.07,1.43,1.05,1.6.98,0.29-.09-0.52-1.41-0.26-1.57a4.4,4.4,0,0,0,2.21-3.69h0Zm-7.29-1.15a0.579,0.579,0,0,1-.56-0.56,0.559,0.559,0,0,1,.56-0.56,0.578,0.578,0,0,1,.55.56A0.551,0.551,0,0,1,1640.71,8895.58Zm-3.35,1.15a2.53,2.53,0,0,0,.03.46,6.522,6.522,0,0,1-.88.07,6.373,6.373,0,0,1-2.12-.36,0.44,0.44,0,0,0-.42,0,3.693,3.693,0,0,0-.65.65,3.8,3.8,0,0,0,.2-0.78,0.564,0.564,0,0,0-.36-0.4,4.536,4.536,0,0,1-1.99-3.65c0-2.53,2.38-4.57,5.34-4.57,2.77,0,5.01,1.77,5.3,4.08a4.83,4.83,0,0,0-4.45,4.5h0Zm6.73-1.15a0.571,0.571,0,0,1-.55-0.56,0.557,0.557,0,0,1,.55-0.56,0.579,0.579,0,0,1,.56.56A0.553,0.553,0,0,1,1644.09,8895.58Zm-5.33-4.04a0.869,0.869,0,0,0,.84-0.86,0.845,0.845,0,1,0-1.69,0A0.845,0.845,0,0,0,1638.76,8891.54Zm-4.5,0a0.871,0.871,0,0,0,.85-0.86,0.845,0.845,0,1,0-1.69,0A0.825,0.825,0,0,0,1634.26,8891.54Z" transform="translate(-1630 -8887)"/>
</svg>
