<svg xmlns="http://www.w3.org/2000/svg" width="16.5" height="15.34" viewBox="0 0 16.5 15.34">
  <defs>
    <style>
      .cls-1 {
        fill: #11c4ff;
        fill-rule: evenodd;
      }
    </style>
  </defs>
  <path id="liaxifangimg1" class="cls-1" d="M1450.27,8658.35a2.067,2.067,0,0,0-.69.6,11.035,11.035,0,0,1-.89-0.78q-0.48-.465-0.9-0.96a2.747,2.747,0,0,0,.75-1.09,4.275,4.275,0,0,0-.28-2.77,4.819,4.819,0,0,0-1.51-2.01,2.521,2.521,0,0,0-2.13-.5l-0.06.01a1.038,1.038,0,0,1-.13.04c-0.02,0-.03.01-0.05,0.01a4.41,4.41,0,0,0-1.77,1.03,3.728,3.728,0,0,0-.99,1.67v0.01a6.271,6.271,0,0,0,.43,4.14,12.5,12.5,0,0,0,2.9,4.13,12.16,12.16,0,0,0,5.43,3.14,6.357,6.357,0,0,0,2.62.11,4.363,4.363,0,0,0,1.38-.5,4.219,4.219,0,0,0,.79-0.6,3.975,3.975,0,0,0,1.03-1.82,0.88,0.88,0,0,0,.05-0.15,0.076,0.076,0,0,0,.01-0.04c0.39-1.33-.74-2.84-2.68-3.59a4.284,4.284,0,0,0-3.31-.08h0Zm4.71,3.35-0.01.02a0.169,0.169,0,0,1-.02.05,0.423,0.423,0,0,0-.04.12,2.569,2.569,0,0,1-.68,1.23,3.649,3.649,0,0,1-3.49.62,10.781,10.781,0,0,1-4.83-2.82,11.185,11.185,0,0,1-2.62-3.7,5.161,5.161,0,0,1-.38-3.28v-0.02a2.454,2.454,0,0,1,.64-1.08,3.077,3.077,0,0,1,1.21-.68,0.471,0.471,0,0,1,.09-0.03l0.07-.02c0.6-.15,1.55.47,2.1,1.78a3.115,3.115,0,0,1,.24,1.91,1.039,1.039,0,0,1-.21.29c-0.13.15-.29,0.29-0.4,0.4a1.07,1.07,0,0,0-.36.48,0.787,0.787,0,0,0,.11.66,0.022,0.022,0,0,0,.02.02,0.052,0.052,0,0,0,.02.04,12.525,12.525,0,0,0,1.29,1.44,13.352,13.352,0,0,0,1.36,1.15,0.672,0.672,0,0,0,.12.06,0.98,0.98,0,0,0,.83.05,0.745,0.745,0,0,0,.34-0.31,1.925,1.925,0,0,1,.45-0.55,2.967,2.967,0,0,1,2.22.14c1.09,0.41,2.12,1.33,1.93,2.03h0Zm1.8-10.09a5.007,5.007,0,0,0-3.52-1.72,0.687,0.687,0,0,0-.73.61,0.627,0.627,0,0,0,.6.7,3.727,3.727,0,0,1,2.61,1.28,3.586,3.586,0,0,1,.86,2.74,0.627,0.627,0,0,0,.6.7,0.726,0.726,0,0,0,.39-0.09,0.711,0.711,0,0,0,.35-0.53,4.88,4.88,0,0,0-1.16-3.69h0Zm0,0-5.28,2.13a0.705,0.705,0,0,0-.74.62,0.637,0.637,0,0,0,.6.7,0.772,0.772,0,0,1,.75.86,0.627,0.627,0,0,0,.6.7,0.646,0.646,0,0,0,.39-0.09,0.711,0.711,0,0,0,.35-0.52,2.073,2.073,0,0,0-.49-1.55,2.138,2.138,0,0,0-1.46-.72h0Zm1.09-1.76a0.68,0.68,0,0,0-.73.61,0.627,0.627,0,0,0,.6.7,1.93,1.93,0,0,1,1.33.65,1.876,1.876,0,0,1,.44,1.4,0.627,0.627,0,0,0,.6.7,0.726,0.726,0,0,0,.39-0.09,0.675,0.675,0,0,0,.34-0.53,3.083,3.083,0,0,0-.73-2.35,3.19,3.19,0,0,0-2.24-1.09h0Zm0,0" transform="translate(-1441.44 -8649.88)"/>
</svg>
