<svg xmlns="http://www.w3.org/2000/svg" width="18" height="14" viewBox="0 0 18 14">
  <defs>
    <style>
      .cls-1 {
        fill: #11c4ff;
        fill-rule: evenodd;
      }
    </style>
  </defs>
  <path id="liaxifangimg2" class="cls-1" d="M1457.62,8686.77h-15.24a1.43,1.43,0,0,0-1.38,1.47v11.06a1.439,1.439,0,0,0,1.38,1.48h15.24a1.439,1.439,0,0,0,1.38-1.48v-11.06A1.43,1.43,0,0,0,1457.62,8686.77Zm-2.16,1.47-5.46,5.37-5.46-5.37h10.92Zm2.16,11.06h-15.24v-11.06h0.12l6.56,6.45a1.328,1.328,0,0,0,1.88,0l6.56-6.45h0.12v11.06Z" transform="translate(-1441 -8686.78)"/>
</svg>
