<svg id="图层_1" data-name="图层 1" xmlns="http://www.w3.org/2000/svg" viewBox="0 0 190 50"><defs><style>.cls-1{fill:#004ea2 ;}</style></defs><title>logo</title><path class="cls-1" d="M33,29.76,15.15,47.59,14,46.41,31.8,28.58Zm-2.6-2.6h0l-.44-.44a.72.72,0,0,0-1,0L11.6,44l1.18,1.18L30.6,27.38Zm4.48,4.48L34.18,31,16.35,48.79l.68.68a.72.72,0,0,0,1,0L34.86,32.65A.72.72,0,0,0,34.86,31.64ZM14.32,22.3,2.09,34.53l1.17,1.17L15.5,23.48Zm2.38,2.38L4.47,36.91l1.18,1.18L17.87,25.86Zm2.37,2.38L6.84,39.28,8,40.46,20.25,28.23Zm15.79-9.71L18,.53a.72.72,0,0,0-1,0L.21,17.35a.72.72,0,0,0,0,1l5,5a.72.72,0,0,0,1.07-.07h0l5-5a.73.73,0,0,1,1,0L23.22,29.09a.71.71,0,0,0,1-.08L34.86,18.37A.72.72,0,0,0,34.86,17.35Zm-22.6,2.9-.06,0a.4.4,0,0,0-.58,0h0L.21,31.64a.72.72,0,0,0,0,1l.68.68L13.12,21.1ZM22.35,30.88a.38.38,0,0,0,0-.53l-.92-.91L9.22,41.66l1.17,1.18L22.33,30.91Zm22.94,5.7L48.83,42h1.33V34.29H48.78v5.23l-3.5-5.23H43.92V42h1.37Zm21.65-2.29h-1.2V42h1.2ZM79.36,42V38.73a6.34,6.34,0,0,0-.09-1.22,2.27,2.27,0,0,0-.29-.72,2,2,0,0,0-.78-.71,3.41,3.41,0,0,0-2.84,0,2,2,0,0,0-.78.71,2.27,2.27,0,0,0-.29.72,6.25,6.25,0,0,0-.09,1.21V42h1.24V39.25a3.57,3.57,0,0,1,.31-1.74,1.31,1.31,0,0,1,2.09,0,3.61,3.61,0,0,1,.28,1.74V42Zm-6.95,0h1.27v-2.9c0-.06,0-.12,0-.19a3.11,3.11,0,0,0-3.11-3.11h-.12a3.07,3.07,0,0,0-1,.17,2.69,2.69,0,0,0-.88.51,3.17,3.17,0,0,0-1.1,2.43,3.14,3.14,0,0,0,.26,1.26,2.94,2.94,0,0,0,.74,1,2.77,2.77,0,0,0,.93.59,3,3,0,0,0,1.1.21,3.23,3.23,0,0,0,1-.15,2.66,2.66,0,0,0,.43-.2V40.16l0,0a1.81,1.81,0,0,1-2.62,0,1.87,1.87,0,0,1-.54-1.34,1.82,1.82,0,0,1,.54-1.34A1.88,1.88,0,0,1,70.65,37a1.67,1.67,0,0,1,1.25.54,1.84,1.84,0,0,1,.52,1.32V42Zm12.42-7.68v4.53a.58.58,0,0,1,0,.08,1.83,1.83,0,0,1-.52,1.32,1.68,1.68,0,0,1-1.25.54,1.88,1.88,0,0,1-1.37-.54,1.83,1.83,0,0,1-.54-1.34,1.87,1.87,0,0,1,.54-1.34,1.81,1.81,0,0,1,2.61,0l0,0V36.12a2.33,2.33,0,0,0-.44-.2,3.15,3.15,0,0,0-1-.15,3,3,0,0,0-1.1.2,2.89,2.89,0,0,0-.93.59,2.93,2.93,0,0,0-.74,1,3.14,3.14,0,0,0-.26,1.26,3.2,3.2,0,0,0,.29,1.34A3.11,3.11,0,0,0,81,41.28a2.69,2.69,0,0,0,.88.51,3.13,3.13,0,0,0,1,.17H83a3.11,3.11,0,0,0,3.1-3.11c0-.07,0-.12,0-.18V34.29Zm-28.08,3.5-1.07.66-3,1.86a1.93,1.93,0,0,0,.67.33,1.81,1.81,0,0,0,2.24-1.33v-.05l.74,1.24a2.42,2.42,0,0,1-.27.39,3.05,3.05,0,0,1-.78.64,3,3,0,0,1-1,.39,2.83,2.83,0,0,1-1.1,0A3,3,0,0,1,52,41.39a3.21,3.21,0,0,1-1.3-2.23,3.21,3.21,0,0,1,.14-1.35,2.74,2.74,0,0,1,.49-.89,3.06,3.06,0,0,1,.77-.66l.1-.06a3.1,3.1,0,0,1,3.91.63,3.18,3.18,0,0,1,.32.45l.1.16Zm-1.7-.29a1.81,1.81,0,0,0-.81-.47,1.66,1.66,0,0,0-1.34.17,1.87,1.87,0,0,0-.9,1.15,1.78,1.78,0,0,0,0,1Zm4,3.93h0l.17.54h.89l1.08-3.6L62.33,42h.89l.17-.54h0l1.82-5.65H64L62.8,39.42l-1.09-3.66h-.92L59.7,39.42l-1.17-3.65H57.28l1.82,5.65ZM169.19,36.5a2.22,2.22,0,0,0,2.22,2.22h2.29a1,1,0,0,1,0,2h-4.51V42h4.64a2.22,2.22,0,0,0,0-4.43h-2.42a1,1,0,1,1,0-2h4.52v-1.2h-4.52A2.22,2.22,0,0,0,169.19,36.5Zm-69.63-.76a3.11,3.11,0,1,1-3.11,3.11A3.11,3.11,0,0,1,99.56,35.74Zm-1.91,3.11a1.91,1.91,0,1,0,1.91-1.91A1.91,1.91,0,0,0,97.65,38.86ZM158.09,42a3.11,3.11,0,1,1,3.11-3.11A3.11,3.11,0,0,1,158.09,42Zm0-1.2a1.91,1.91,0,1,0-1.91-1.91A1.91,1.91,0,0,0,158.09,40.77Zm-7.54-6.49v1.49h-1V37h1v5h1.2V37h1V35.77h-1V34.28ZM147.79,42h1.27v-2.9c0-.06,0-.12,0-.19a3.11,3.11,0,0,0-3.11-3.11h-.12a3.1,3.1,0,0,0-1,.17,2.72,2.72,0,0,0-.88.51,3.18,3.18,0,0,0-1.1,2.43,3.16,3.16,0,0,0,.26,1.26,2.92,2.92,0,0,0,.74,1,2.77,2.77,0,0,0,.93.59,3,3,0,0,0,1.1.21,3.21,3.21,0,0,0,1-.15,2.64,2.64,0,0,0,.43-.2V40.16l0,0a1.74,1.74,0,0,1-1.3.55,1.76,1.76,0,0,1-1.31-.56,1.87,1.87,0,0,1-.54-1.34,1.81,1.81,0,0,1,.55-1.34A1.87,1.87,0,0,1,146,37a1.68,1.68,0,0,1,1.25.54,1.84,1.84,0,0,1,.52,1.32V42Zm-43.39,0V38.36a1.39,1.39,0,1,1,2.78,0V42h1.2V38.36a1.49,1.49,0,0,1,1.48-1.4,1.39,1.39,0,0,1,1.31,1.41V42h1.2V38.35h0a2.59,2.59,0,0,0-4.59-1.65,2.59,2.59,0,0,0-4.59,1.65s0,.08,0,.13V42Zm15.09-6.21a2.59,2.59,0,0,0-2,.94,2.59,2.59,0,0,0-4.59,1.65s0,.08,0,.13V42h1.2V38.36a1.39,1.39,0,1,1,2.78,0V42h1.2V38.36a1.49,1.49,0,0,1,1.48-1.4,1.39,1.39,0,0,1,1.31,1.41V42h1.2V38.35h0A2.59,2.59,0,0,0,119.48,35.75Zm3.12,0v3.58h0a2.68,2.68,0,0,0,5.34.21V35.76h-1.2V38.4c0,.82.09,2.37-1.46,2.37-1.31,0-1.48-1.12-1.5-2V37.06h0v-1.3Zm7.09,3.57c0-.81-.09-2.37,1.46-2.37,1.32,0,1.48,1.12,1.5,2v1.76h0V42h1.2V38.38h0a2.68,2.68,0,0,0-5.34-.21V42h1.2ZM164.39,37c1.31,0,1.48,1.12,1.5,2v1.76h0V42h1.19V38.38h0a2.68,2.68,0,0,0-5.34-.21V42h1.2V39.33C162.93,38.51,162.84,37,164.39,37Zm22.26,5V35.49h2.64v-1.2H182.8v1.2h2.64V42Zm-9.47-4.18a2.31,2.31,0,0,1,.3-.25,1.95,1.95,0,1,1,2.87,0,2.29,2.29,0,0,1,.29.25l.89.88,1-1,.85.85-1,1,1,1-.85.85-1-1-.89.89-.84-.85.88-.89-.88-.88.56-.57-.56.57a1.25,1.25,0,1,0,0,1.77l.84.85a2.45,2.45,0,1,1-3.46-3.46Zm.88-1.56a.85.85,0,0,0,.8.85h.1a.85.85,0,1,0-.9-.85Zm-86-.76a2.63,2.63,0,0,1,2.35,1.44h1.32a3.86,3.86,0,1,0,0,2.4H94.42a2.63,2.63,0,1,1-2.35-3.83Zm48.83,4.29a1.93,1.93,0,1,1,0-1.81h1.3a3.12,3.12,0,1,0,0,1.81ZM153.09,10.7l6.39-.06V23.7s0,2.6-2.42,2.6h-3.18V23.71h.74a1.19,1.19,0,0,0,1.21-1.22v-1h-3.36v4.76H149V21.53h-3v4.76h-3.61V10.7h5.53a20.55,20.55,0,0,0-3.76-3h4.06c.75.45,1.5,1.16,2.18,1.62a14.62,14.62,0,0,0,3.16-2.68h-11.4v-2H159V5.84a2,2,0,0,1-.65,1.69A39.05,39.05,0,0,1,153.09,10.7ZM149,17h-3V19.5h3Zm0-4.29h-3V15.1h3ZM155.58,17h-3.11V19.5h3.11Zm-3.11-4.29V15.1h3.11V12.73ZM139.89,23.45V12.62h-5.64V15h2.37v9.14a3.76,3.76,0,0,1-2.37,4v2a6.68,6.68,0,0,0,4.51-2.6,5.47,5.47,0,0,0,5.08,2.6h16.7V27.85h-16.7C141.28,27.7,140,25.86,139.89,23.45ZM136,10.28h3.27a25.82,25.82,0,0,0-2.14-5.64h-2.94A26.75,26.75,0,0,1,136,10.28Zm36.39-.84H190V7h-7V4.63h-3.61V7h-7Zm16.79,2.15h-16V14h16Zm-16,6h16V15.2h-16Zm-.05,2.4h16.13v7.66a2.36,2.36,0,0,1-2.4,2.43H176.77v0h-3.62Zm3.62,7.68h7.69a1.16,1.16,0,0,0,1.2-1.16v-4.1h-8.9Zm-13-12.86a12.48,12.48,0,0,0,2.74-1.33V30.12h3.62v-20a18.67,18.67,0,0,0,2.78-5.46h-3.83a13.57,13.57,0,0,1-5.3,7.79ZM100,13.46V11H88.94V4.39H85V11H73.92v2.44H85v.84a13,13,0,0,1-.61,3.54c-1.06,2.85-3.23,6.69-10.48,9v3.31c3-.84,10.31-3.46,13.05-9.33,2.74,5.87,10.07,8.49,13.06,9.33V26.81c-7.25-2.27-9.43-6.11-10.49-9a13,13,0,0,1-.6-3.54v-.84Zm29.84,14.29V18.12h-3.59v9c0,.54-.22.58-.51.61h-1.64V15.34h5.73V13h-5.73V9.24h5.74V7h-5.74V4.37h-3.58V7h-5.77V9.24h5.77V13h-5.78v2.38h5.78V27.78h-2.18V18.12h-3.61v12h12C129.89,30.17,129.87,27.75,129.87,27.75Zm-22.18,2.42h-3.54V4.37h8.55s1.74.06,1.18,2.15-2.5,8-2.5,8c.34,1.28,1.72,5.11,2.45,8.7a1.65,1.65,0,0,1-1.62,2.22l-4.53,0Zm0-7.08h2.52c.31,0,.52-.22.4-.53-.89-3.25-2.4-8-2.4-8,1-3.22,2-6.19,2.3-7.3.06-.4-.2-.46-.34-.46h-2.47ZM53.16,6.1h5.65V8.48H57L56,12h2.82v2.39H53.16v2.09H58.8V18.9H57.19V21c0,.14,0,.29,0,.44,0,1.09.1,5.53,1.2,8.32v0c.06.14.11.28.18.41H56.47s-1.26-.74-1.94-5.54c-.12-1.19-.2-2.6-.23-3.27V18.9H53.16V30.24H49.58V18.9H48.42v2.48c0,.67-.11,2.08-.24,3.27-.68,4.8-1.94,5.54-1.94,5.54H44.12c.06-.13.12-.27.18-.41v0c1.11-2.78,1.2-7.23,1.2-8.32,0-.15,0-.3,0-.44V18.9h-1.6V16.51h5.65V14.42H43.92V12h2.83l-1-3.55H43.92V6.1h5.65V4.39h3.59ZM49.23,8.48h-.38l1,3.55h3l1-3.55Zm18.88,0h.06c1.14-.06,1.52-.51,1.54-.84V6.12H59.79V30.19h1.72c1.24-1.29,1.82-3.8,1.82-5.91V14.42h1.7V30.21H68.4l0-15.79H69.7V12H63.36V8.5Zm67.46,25.79h-1.2v1.2h1.2ZM134.37,42h1.2V36.24h-1.2Zm20.08-7.68h-1.2v1.2h1.2ZM153.25,42h1.2V36.24h-1.2Z"/></svg>