<svg xmlns="http://www.w3.org/2000/svg" width="16.188" height="16.22" viewBox="0 0 16.188 16.22">
  <defs>
    <style>
      .cls-1 {
        fill: #004ea2;
        fill-rule: evenodd;
      }
    </style>
  </defs>
  <path id="timeiconimg1" class="cls-1" d="M132.1,7656.4a8.1,8.1,0,1,1,8.1-8.1A8.113,8.113,0,0,1,132.1,7656.4Zm0-14.73a6.625,6.625,0,1,0,6.627,6.63A6.634,6.634,0,0,0,132.1,7641.67Zm3.124,10.49a0.711,0.711,0,0,1-.52-0.22l-3.122-3.12a0.731,0.731,0,0,1-.216-0.52v-4.42a0.737,0.737,0,0,1,.736-0.74h0a0.738,0.738,0,0,1,.737.74V7648l2.906,2.9a0.736,0.736,0,0,1,0,1.04A0.714,0.714,0,0,1,135.224,7652.16Z" transform="translate(-124 -7640.19)"/>
</svg>
