<svg xmlns="http://www.w3.org/2000/svg" width="150" height="58" viewBox="0 0 150 58">
  <defs>
    <style>
      .cls-1 {
        fill: #fff;
        fill-rule: evenodd;
      }
    </style>
  </defs>
  <path id="logogimfwz1" class="cls-1" d="M73.661,58.412L52.106,79.361l1.419,1.38L75.08,59.793Zm-1.724-1.674h0L71.4,56.217a0.887,0.887,0,0,0-1.18-.041L49.234,76.57l1.419,1.382L72.208,57ZM77.352,62l-0.82-.8L54.977,82.151l0.821,0.8a0.892,0.892,0,0,0,1.231,0L77.352,63.2A0.831,0.831,0,0,0,77.352,62ZM52.525,51.041L37.747,65.406l1.419,1.38,14.78-14.364ZM55.4,53.832L40.619,68.2l1.42,1.38,14.78-14.364Zm2.872,2.79L43.489,70.988l1.421,1.38L59.692,58ZM77.352,45.214L57.029,25.462a0.891,0.891,0,0,0-1.231,0L35.474,45.214a0.829,0.829,0,0,0,0,1.2l6.08,5.908a0.884,0.884,0,0,0,1.3-.085,0.122,0.122,0,0,1,.018-0.014l6.1-5.931a0.891,0.891,0,0,1,1.232,0L63.284,59a0.868,0.868,0,0,0,1.2-.091l12.864-12.5A0.83,0.83,0,0,0,77.352,45.214Zm-27.319,3.4a0.512,0.512,0,0,1-.07-0.05,0.493,0.493,0,0,0-.7.038l0,0a0.107,0.107,0,0,0-.014.016h0L35.474,62a0.83,0.83,0,0,0,0,1.2L36.3,64,51.075,49.63Zm12.2,12.494a0.441,0.441,0,0,0,.02-0.621l-1.107-1.073L46.362,73.779l1.42,1.381L62.208,61.141A0.266,0.266,0,0,1,62.23,61.111Zm38.9,18.755V61.945H98.17V74.151L89.1,61.945H86.139V79.866H89.1V67.3L98.17,79.866h2.955ZM136.4,61.945V79.866h2.965V61.945H136.4Zm26.5,6.31a2.768,2.768,0,0,1,2.509,1.2c0.452,0.71.662,2,.662,4.073v6.337h2.972V72.3a14.273,14.273,0,0,0-.215-2.835,5.135,5.135,0,0,0-.693-1.69,4.8,4.8,0,0,0-1.874-1.665,8.434,8.434,0,0,0-6.81,0,4.837,4.837,0,0,0-1.876,1.667,5.141,5.141,0,0,0-.691,1.688,14.149,14.149,0,0,0-.22,2.835v7.566h2.975V73.528a8.192,8.192,0,0,1,.754-4.073A2.77,2.77,0,0,1,162.893,68.255Zm-11.686,7.4a1.186,1.186,0,0,1-.09.1,4.449,4.449,0,0,1-7.579-3.143,4.194,4.194,0,0,1,1.308-3.138,4.584,4.584,0,0,1,3.287-1.255,4.072,4.072,0,0,1,3,1.265,4.3,4.3,0,0,1,1.318,3.077v7.309h2.964V73.1c0-.135-0.008-0.278-0.008-0.44a7.374,7.374,0,0,0-7.469-7.261c-0.1,0-.2,0-0.29-0.007a7.748,7.748,0,0,0-2.41.4,6.5,6.5,0,0,0-2.115,1.2,7.555,7.555,0,0,0-1.967,2.543,7.333,7.333,0,0,0-.684,3.118A7.138,7.138,0,0,0,141.1,75.6a6.983,6.983,0,0,0,1.768,2.416A6.755,6.755,0,0,0,145.1,79.39a7.4,7.4,0,0,0,2.639.476,7.877,7.877,0,0,0,2.428-.351,6.041,6.041,0,0,0,1.041-.461v-3.4Zm34.012-3.462V61.945h-3.048V72.522a1.388,1.388,0,0,1,.009.188,4.2,4.2,0,0,1-1.24,3.074,4.071,4.071,0,0,1-3,1.265,4.594,4.594,0,0,1-3.292-1.254,4.2,4.2,0,0,1-1.305-3.137,4.443,4.443,0,0,1,7.573-3.14c0.03,0.032.062,0.065,0.092,0.1V66.224a5.931,5.931,0,0,0-1.045-.465,7.827,7.827,0,0,0-2.421-.351,7.5,7.5,0,0,0-2.645.473,7.346,7.346,0,0,0-3.988,3.784,7.178,7.178,0,0,0-.622,2.941,7.309,7.309,0,0,0,2.648,5.656,6.505,6.505,0,0,0,2.109,1.2,7.591,7.591,0,0,0,2.428.4l0.278,0a7.365,7.365,0,0,0,7.458-7.254C185.211,72.458,185.216,72.321,185.219,72.19Zm-71.276,1.5a4.077,4.077,0,0,1-2.007,2.655,4.306,4.306,0,0,1-3.368.434A4.532,4.532,0,0,1,106.947,76l7.2-4.342,2.573-1.55-0.5-.814c-0.074-.111-0.153-0.234-0.238-0.372a7.222,7.222,0,0,0-.784-1.042,7.587,7.587,0,0,0-9.4-1.465c-0.09.052-.171,0.1-0.252,0.139a7.319,7.319,0,0,0-1.845,1.537,6.255,6.255,0,0,0-1.179,2.072,7.358,7.358,0,0,0,2.774,8.351,7.21,7.21,0,0,0,2.771,1.188,6.968,6.968,0,0,0,2.629.069,7.291,7.291,0,0,0,2.505-.9,7.556,7.556,0,0,0,1.888-1.5,5.818,5.818,0,0,0,.65-0.909l-1.781-2.9C113.96,73.6,113.95,73.645,113.943,73.689ZM105.3,71.426a4.372,4.372,0,0,1,2.151-2.7,4.1,4.1,0,0,1,3.228-.408,4.356,4.356,0,0,1,1.956,1.113l-7.254,4.372A4.015,4.015,0,0,1,105.3,71.426Zm30.186-6.018h-2.976l-2.825,8.531L127.062,65.4h-2.2l-2.618,8.541-2.826-8.531h-2.976l4.368,13.185-0.005.016h0.01l0.417,1.257h2.143l2.589-8.4,2.59,8.4H130.7l0.415-1.257h0.01l0-.016ZM96.773,28.568H92.639v1.911h-6.5v2.667h2.084l1.171,3.966H86.139v2.655h6.513v2.356h-6.5v2.665h1.841v2.36c-0.005.159-.012,0.327-0.02,0.5-0.006,1.215-.11,6.7-1.386,9.822,0,0.007-.006,0-0.006,0h2.24s1.451-.883,2.229-6.249c0.143-1.331.234-2.906,0.273-3.661V44.787h1.331V57.466h4.119V44.787h1.31v2.768c0.039,0.755.13,2.331,0.271,3.661,0.78,5.366,2.23,6.249,2.23,6.249h2.24s-0.005.007-.006,0c-1.276-3.118-1.38-8.607-1.385-9.822-0.009-.169-0.016-0.337-0.022-0.5v-2.36h1.853V42.123H96.771V39.767h6.5V37.112h-3.247l1.171-3.966h2.076V30.479h-6.5V28.568Zm0.922,4.577-1.2,3.966H92.989l-1.173-3.966h5.88Zm16.284,0.019c0.022,0,.039-0.006.064-0.007,1.315-.064,1.747-0.569,1.765-0.943V30.479H104.384V57.466h2.024c1.431-1.437,2.124-4.3,2.124-6.651V39.767h1.711v17.7h4.148v-17.7h1.417l0-2.655h-7.272V33.164h5.447Zm71.24,21.542V43.945h-4.148V54.057a0.6,0.6,0,0,1-.625.745h-1.871V40.825h6.644V38.16h-6.644V34.12h6.644V31.454h-6.644V28.568h-4.149v2.886H167.8V34.12h6.629v4.04H167.79v2.665h6.636V54.8h-2.5V43.945H167.78V57.416h13.845C185.181,57.416,185.219,54.706,185.219,54.706ZM163.874,39.888s2.265-6.692,2.876-8.909c0.645-2.34-1.353-2.408-1.353-2.408h-9.836V57.416h4.148V52.123h5.125a1.869,1.869,0,0,0,1.861-2.5C165.852,45.607,164.268,41.318,163.874,39.888Zm-1.389,9.61h-2.776V31.232h2.722a0.383,0.383,0,0,1,.4.4,0.848,0.848,0,0,1-.011.152c-0.294.924-.967,3.026-1.785,5.538-0.272.837-.56,1.72-0.856,2.62,0,0,1.74,5.331,2.762,8.96,0,0,0,0,0,.006a0.487,0.487,0,0,1,.034.228A0.446,0.446,0,0,1,162.485,49.5Zm-1.451-12.175c-0.272.837-.56,1.72-0.856,2.62,0,0,1.74,5.331,2.762,8.96,0,0,0,0,0,.006m-0.457.548h-2.776V49.5h2.776a0.446,0.446,0,0,0,.491-0.36A0.436,0.436,0,0,1,162.485,49.457Zm0.334-17.672a0.848,0.848,0,0,0,.011-0.152m-3.121,17.824V31.275m3.121,0.359a0.383,0.383,0,0,0-.4-0.4h-2.722v0.043h2.722A0.353,0.353,0,0,1,162.83,31.633Zm0.146,17.5a0.487,0.487,0,0,0-.034-0.228A0.505,0.505,0,0,1,162.976,49.138Zm-12.5-10.414V35.994h-12.7V28.568h-4.147v7.426H120.85v2.729h12.771v0.941a21.435,21.435,0,0,1-.9,3.965c-1.216,3.2-3.519,7.6-11.872,10.146v3.7c3.437-.945,11.674-3.983,14.834-10.56,3.16,6.577,11.35,9.615,14.788,10.56v-3.7c-8.354-2.545-10.609-6.951-11.826-10.146a20.435,20.435,0,0,1-.878-3.965V38.723h12.7Z" transform="translate(-35.219 -25.219)"/>
</svg>
